<svg width="147" height="48" viewBox="0 0 147 48" fill="none" xmlns="http://www.w3.org/2000/svg">
<g clip-path="url(#clip0_93_236)">
<path d="M0 21.3834V0.330811H4.52447V21.3834H0ZM2.08126 4.39096V0.330811H14.2672V4.39096H2.08126ZM2.08126 13.0225V9.14284H13.0003V13.0225H2.08126Z" fill="#FFFBF7"/>
<path d="M17.0535 21.3834V0.330811H21.5779V17.3233H31.1396V21.3834H17.0535Z" fill="#FFFBF7"/>
<path d="M33.647 21.3834V0.330811H47.9141V4.30074H38.0508V17.4135H48.1253V21.3834H33.647ZM35.7584 12.5714V8.72179H46.4663V12.5714H35.7584Z" fill="#FFFBF7"/>
<path d="M51.5846 21.3834V0.330811H65.8518V4.30074H55.9884V17.4135H66.0629V21.3834H51.5846ZM53.696 12.5714V8.72179H64.4039V12.5714H53.696Z" fill="#FFFBF7"/>
<path d="M74.3352 21.3834V4.39096H68.1819V0.330811H85.1939V4.39096H78.8596V21.3834H74.3352Z" fill="#FFFBF7"/>
<path d="M87.6201 21.3834V17.5037H91.1492V4.21051H87.6201V0.330811H99.2028V4.21051H95.6737V17.5037H99.2028V21.3834H87.6201Z" fill="#FFFBF7"/>
<path d="M102.845 21.3834V0.330811H106.887L118.56 16.0601H117.715C117.634 15.438 117.565 14.8327 117.504 14.2406C117.444 13.6485 117.387 13.047 117.338 12.4361C117.287 11.8252 117.248 11.1936 117.218 10.5413C117.188 9.89096 117.163 9.19735 117.142 8.46615C117.122 7.73495 117.112 6.93795 117.112 6.07517V0.330811H121.546V21.3834H117.444L105.529 5.50374L106.676 5.53382C106.776 6.57705 106.862 7.46427 106.932 8.19547C107.002 8.92856 107.058 9.56389 107.098 10.1052C107.138 10.6466 107.173 11.1184 107.204 11.5188C107.234 11.9192 107.254 12.3007 107.264 12.6616C107.273 13.0225 107.279 13.4041 107.279 13.8045V21.3834H102.845Z" fill="#FFFBF7"/>
<path d="M135.953 21.6842C134.324 21.6842 132.831 21.4079 131.474 20.8571C130.116 20.3064 128.944 19.5395 127.96 18.5564C126.974 17.5733 126.216 16.4211 125.682 15.0977C125.149 13.7744 124.883 12.3402 124.883 10.797C124.883 9.25376 125.158 7.82519 125.712 6.51128C126.265 5.19925 127.049 4.05639 128.065 3.08271C129.079 2.1109 130.273 1.35338 131.639 0.81203C133.006 0.270677 134.505 0 136.134 0C137.259 0 138.336 0.150376 139.361 0.451128C140.387 0.75188 141.322 1.16353 142.166 1.68421C143.011 2.20489 143.714 2.80639 144.278 3.48872L141.473 6.43609C140.949 5.93421 140.402 5.5094 139.829 5.1579C139.256 4.80639 138.656 4.53571 138.034 4.34587C137.41 4.15602 136.767 4.06015 136.104 4.06015C135.159 4.06015 134.288 4.2312 133.494 4.57143C132.701 4.91165 132.001 5.38346 131.398 5.98496C130.795 6.58647 130.327 7.29887 129.996 8.1203C129.664 8.94361 129.498 9.83459 129.498 10.797C129.498 11.7594 129.673 12.6259 130.026 13.4586C130.376 14.2914 130.859 15.0132 131.474 15.6241C132.086 16.2368 132.804 16.7162 133.63 17.0677C134.454 17.4192 135.34 17.594 136.285 17.594C136.948 17.594 137.582 17.4944 138.185 17.2932C138.788 17.0921 139.316 16.8064 139.768 16.4361C140.221 16.0658 140.571 15.6297 140.824 15.1278C141.075 14.6259 141.201 14.0959 141.201 13.5338V12.812L141.804 13.6541H135.772V9.89474H145.545C145.565 10.1165 145.59 10.3872 145.62 10.7068C145.65 11.0282 145.669 11.344 145.68 11.6541C145.69 11.9643 145.695 12.2105 145.695 12.391C145.695 13.7538 145.448 15.0075 144.956 16.1504C144.464 17.2932 143.78 18.2763 142.905 19.0977C142.031 19.9211 140.999 20.5564 139.814 21.0075C138.628 21.4586 137.34 21.6842 135.953 21.6842Z" fill="#FFFBF7"/>
<path d="M0 47.6992V26.6466H4.52447V47.6992H0ZM2.08126 30.7068V26.6466H14.2672V30.7068H2.08126ZM2.08126 39.3383V35.4586H13.0003V39.3383H2.08126Z" fill="#FFFBF7"/>
<path d="M17.0535 47.6992V26.6466H21.5779V43.6391H31.1396V47.6992H17.0535Z" fill="#FFFBF7"/>
<path d="M124.106 47.6992L117.681 26.6466H122.327L125.765 38.406C125.907 38.8271 126.031 39.2838 126.142 39.7744C126.252 40.2669 126.344 40.7368 126.414 41.188C126.483 41.6391 126.544 42.0601 126.595 42.4511C126.644 42.8421 126.689 43.1673 126.73 43.4286L126.006 43.3985C126.187 42.5564 126.338 41.8496 126.459 41.2782C126.58 40.7068 126.695 40.1955 126.806 39.7444C126.915 39.2932 127.051 38.8383 127.213 38.3759L130.531 29.6842H134.271L137.529 38.3759C137.77 38.9774 137.966 39.5545 138.117 40.1053C138.268 40.6579 138.392 41.188 138.494 41.6992C138.594 42.2105 138.694 42.7274 138.796 43.2481L138.132 43.3684C138.192 42.9474 138.238 42.5827 138.268 42.2707C138.298 41.9605 138.328 41.6748 138.358 41.4135C138.388 41.1541 138.422 40.8872 138.464 40.6165C138.503 40.3459 138.564 40.0244 138.645 39.6541C138.724 39.2838 138.847 38.8477 139.007 38.3459L142.415 26.6466H147L140.515 47.6992H137.167L131.949 35.2481L132.431 35.3083L127.575 47.6992H124.106Z" fill="#FFFBF7"/>
<path d="M106.491 30.7369C110.016 30.7369 112.886 33.5978 112.886 37.1128C112.886 40.6278 110.016 43.4887 106.491 43.4887H42.7977C39.2724 43.4887 36.4031 40.6278 36.4031 37.1128C36.4031 33.5978 39.2724 30.7369 42.7977 30.7369H106.491ZM106.491 26.2256H42.7977C36.767 26.2256 31.8787 31.0996 31.8787 37.1128C31.8787 43.126 36.767 48 42.7977 48H106.491C112.522 48 117.41 43.126 117.41 37.1128C117.41 31.0996 112.522 26.2256 106.491 26.2256Z" fill="#FFFBF7"/>
</g>
<defs>
<clipPath id="clip0_93_236">
<rect width="147" height="48" fill="white"/>
</clipPath>
</defs>
</svg>
